<?xml version="1.0" ?><svg data-name="Layer 4" id="Layer_4" viewBox="0 0 32 32" xmlns="http://www.w3.org/2000/svg"><title/><path d="M24,3a4.983,4.983,0,0,0-4.742,3.49A3.465,3.465,0,0,0,17.5,6a3.5,3.5,0,0,0,0,7H24A5,5,0,0,0,24,3Z" style="fill:#fff"/><path d="M29,23a6,6,0,0,1-6,6H7.5a4.5,4.5,0,0,1-.21-8.99,7,7,0,1,1,13.67-2.65A5.762,5.762,0,0,1,23,17,6,6,0,0,1,29,23Z" style="fill:#fff"/><path d="M23,16a7.015,7.015,0,0,0-1.23.107A7.918,7.918,0,0,0,20.934,14H24a6,6,0,1,0-5.292-8.834A4.5,4.5,0,0,0,13,9.5a4.474,4.474,0,0,0,.062.56A8.008,8.008,0,0,0,6,18a8.154,8.154,0,0,0,.087,1.188A5.5,5.5,0,0,0,7.5,30H23A7,7,0,0,0,23,16ZM17.5,7a2.435,2.435,0,0,1,1.234.332,1,1,0,0,0,1.459-.559A4,4,0,1,1,24,12H19.309a7.939,7.939,0,0,0-4.24-1.923A2.492,2.492,0,0,1,17.5,7ZM23,28H7.5a3.5,3.5,0,0,1-.164-6.991,1,1,0,0,0,.913-1.284A6.014,6.014,0,0,1,14,12a5.963,5.963,0,0,1,4.188,1.706l0,0a5.922,5.922,0,0,1,1.774,3.739,1,1,0,0,0,1.347.85A4.8,4.8,0,0,1,23,18,5,5,0,0,1,23,28Z" style="fill:#fff"/></svg>